<?xml version="1.0" encoding="UTF-8"?>
<svg xmlns="http://www.w3.org/2000/svg" width="1280" height="720" version="1.1" viewBox="0 0 1280 720">
  <defs>
    <style>
      .cls-1 {
        fill: none;
        stroke: #231f20;
        stroke-miterlimit: 10;
      }
    </style>
  </defs>
  <!-- Generator: Adobe Illustrator 28.7.1, SVG Export Plug-In . SVG Version: 1.2.0 Build 142)  -->
  <g>
    <g id="ka1">
      <path class="cls-1" d="M414.8,463.7s49.3-240.6-34.1-234.5-146.8,17.8-223.1,88.1c-108,99.5,79.6,88.1,231.6,36.9,76.4-25.7,210.3-34.1,231.6,29.8s-45.1,81.3-45.1,81.3"/>
      <path class="cls-1" d="M767.2,450.9s-115.6-91.4-44.1-150.6c75.5-62.5,154.4,36.5,184,57.3,12.9,9,24.9,19.4,40.7,20.4,19.7,1.3,38.2-7.1,61-46.4,28.3-48.9,44.3-86.4,56.3-103.2s16.1-4.3,17.2,4.3c3,23.3-.8,80.2-35.1,218.2"/>
    </g>
  </g>
</svg>