<?xml version="1.0" encoding="UTF-8"?>
<svg id="ka1" xmlns="http://www.w3.org/2000/svg" viewBox="0 0 1008.2 279.3">
  <defs>
    <style>
      .cls-1 {
        fill: none;
        stroke: #231f20;
        stroke-miterlimit: 10;
      }
    </style>
  </defs>
  <path class="cls-1" d="M282.1,278.6c1.7-8.1,39.3-280.3-51.9-277.1C163.8,3.8,78.7,27.2,12.9,107.4c-61.3,74.5,117.5,65.9,274.1,31,152-33.9,201.8-5.6,216.2,25.2,28.7,61-77.2,115.3-77.2,115.3"/>
  <path class="cls-1" d="M713.7,278.8s-178.8-132.6-93.7-177.2c47.5-24.9,127.6,25.4,158.9,46.2,13.6,9,37.4,23.8,54,24.9,20.8,1.3,35.2-.5,59.2-39.8,29.9-48.9,45.4-75.8,55.5-94.7,19.9-36.9,45.3-42.5,54.9-34.6,17.1,14.2-11.8,170.5-42.1,273.3"/>
</svg>